<?xml version="1.0" encoding="utf-8"?>
<!-- Generator: Adobe Illustrator 24.1.2, SVG Export Plug-In . SVG Version: 6.00 Build 0)  -->
<svg version="1.1" id="Layer_1" xmlns="http://www.w3.org/2000/svg" xmlns:xlink="http://www.w3.org/1999/xlink" x="0px" y="0px"
	 width="198.1px" height="95.1px" viewBox="0 0 198.1 95.1" style="enable-background:new 0 0 198.1 95.1;" xml:space="preserve">
<style type="text/css">
	.st0{fill:#EA4335;}
	.st1{fill:#FBBC05;}
	.st2{fill:#4285F4;}
	.st3{fill:#34A853;}
</style>
<g>
	<g>
		<path class="st0" d="M88,26.6c0,7.3-5.7,12.6-12.7,12.6c-7,0-12.7-5.4-12.7-12.6c0-7.3,5.7-12.6,12.7-12.6
			C82.3,14,88,19.3,88,26.6z M82.4,26.6c0-4.5-3.3-7.7-7.1-7.7s-7.1,3.1-7.1,7.7c0,4.5,3.3,7.7,7.1,7.7S82.4,31.1,82.4,26.6z"/>
		<path class="st1" d="M115.4,26.6c0,7.3-5.7,12.6-12.7,12.6S90,33.9,90,26.6c0-7.3,5.7-12.6,12.7-12.6S115.4,19.3,115.4,26.6z
			 M109.8,26.6c0-4.5-3.3-7.7-7.1-7.7s-7.1,3.1-7.1,7.7c0,4.5,3.3,7.7,7.1,7.7S109.8,31.1,109.8,26.6z"/>
		<path class="st2" d="M141.6,14.8v22.7c0,9.3-5.5,13.2-12,13.2c-6.1,0-9.8-4.1-11.2-7.5l4.8-2c0.9,2.1,3,4.5,6.4,4.5
			c4.2,0,6.8-2.6,6.8-7.4v-1.8h-0.2c-1.2,1.5-3.6,2.9-6.7,2.9c-6.3,0-12.1-5.5-12.1-12.6c0-7.1,5.8-12.7,12.1-12.7
			c3,0,5.4,1.3,6.7,2.8h0.2v-2.1L141.6,14.8L141.6,14.8z M136.7,26.7c0-4.5-3-7.7-6.8-7.7c-3.8,0-7,3.3-7,7.7c0,4.4,3.2,7.6,7,7.6
			C133.7,34.3,136.7,31.1,136.7,26.7z"/>
		<path class="st3" d="M150.3,1.4v37.1h-5.4V1.4H150.3z"/>
		<path class="st0" d="M171.4,30.8l4.3,2.9c-1.4,2.1-4.7,5.6-10.5,5.6c-7.2,0-12.5-5.6-12.5-12.6c0-7.5,5.4-12.6,11.9-12.6
			c6.6,0,9.8,5.2,10.8,8l0.6,1.4l-16.9,7c1.3,2.5,3.3,3.8,6.1,3.8C168,34.3,170,32.9,171.4,30.8L171.4,30.8z M158.1,26.2l11.3-4.7
			c-0.6-1.6-2.5-2.7-4.7-2.7C161.9,18.9,158,21.4,158.1,26.2z"/>
		<path class="st2" d="M42.1,23.3V18h18.1c0.2,0.9,0.3,2,0.3,3.2c0,4-1.1,9-4.6,12.5c-3.4,3.6-7.9,5.5-13.7,5.5
			c-10.8,0-19.9-8.8-19.9-19.6S31.3,0,42.1,0c6,0,10.3,2.3,13.5,5.4l-3.8,3.8c-2.3-2.2-5.4-3.8-9.7-3.8C34.2,5.4,28,11.7,28,19.6
			s6.2,14.3,14.1,14.3c5.1,0,8-2.1,9.9-3.9c1.5-1.5,2.5-3.7,2.9-6.6L42.1,23.3z"/>
	</g>
	<g>
		<path d="M20.7,69.3h-8.2v23H8.1v-23H0v-3.6h20.7V69.3z"/>
		<path d="M32.3,76.6l-1.9-0.1c-0.9,0-1.6,0.2-2.2,0.5c-0.6,0.4-1,0.9-1.3,1.6v13.7h-4.4V72.6h4.1l0.3,2.9c0.5-1,1.1-1.8,1.9-2.4
			c0.8-0.6,1.7-0.9,2.7-0.9c0.3,0,0.5,0,0.7,0.1c0.2,0,0.4,0.1,0.6,0.2L32.3,76.6z"/>
		<path d="M43.6,92.7c-2.9,0-5.1-0.9-6.8-2.7c-1.6-1.8-2.4-4.2-2.4-7.1v-0.7c0-2.9,0.8-5.3,2.4-7.2s3.7-2.8,6.3-2.8
			c2.7,0,4.7,0.8,6,2.5c1.4,1.6,2,3.8,2,6.6v2.4H39l0,0.1c0,1.6,0.5,2.9,1.3,3.9c0.8,1,2,1.5,3.6,1.5c1.2,0,2.2-0.1,3.1-0.4
			s1.7-0.7,2.5-1.3l1.4,2.9c-0.8,0.7-1.8,1.2-3,1.7C46.7,92.5,45.2,92.7,43.6,92.7z M43.1,75.8c-1.2,0-2.1,0.4-2.8,1.2
			c-0.7,0.8-1.1,1.9-1.3,3.3l0,0.1h7.7v-0.3c0-1.3-0.3-2.3-0.9-3.1C45.3,76.2,44.4,75.8,43.1,75.8z"/>
		<path d="M58.8,72.6l0.3,2.8c0.6-1,1.5-1.8,2.4-2.4c1-0.6,2.1-0.8,3.3-0.8c2.1,0,3.7,0.6,4.8,1.9c1.2,1.3,1.7,3.2,1.7,5.9v12.3
			h-4.4V80.1c0-1.5-0.3-2.6-0.9-3.3c-0.6-0.6-1.5-1-2.7-1c-0.9,0-1.8,0.2-2.5,0.5c-0.7,0.4-1.2,0.9-1.7,1.5v14.5h-4.4V72.6H58.8z"/>
		<path d="M75.1,82.8c0-3.2,0.7-5.7,2-7.6c1.4-1.9,3.2-2.9,5.7-2.9c1.1,0,2,0.2,2.9,0.6c0.8,0.4,1.6,1,2.2,1.9V63.9h4.4v28.5h-3.6
			l-0.5-2.5c-0.6,0.9-1.4,1.7-2.3,2.1s-1.9,0.7-3.1,0.7c-2.4,0-4.3-0.9-5.7-2.6c-1.4-1.8-2-4.1-2-7V82.8z M79.6,83.1
			c0,1.8,0.3,3.3,1,4.4c0.7,1.1,1.8,1.6,3.3,1.6c0.9,0,1.7-0.2,2.4-0.6s1.2-1,1.6-1.7v-8.6c-0.4-0.7-0.9-1.3-1.6-1.7
			s-1.4-0.6-2.3-0.6c-1.5,0-2.6,0.6-3.3,1.9s-1.1,2.9-1.1,5V83.1z"/>
		<path d="M108.2,87c0-0.7-0.3-1.2-0.9-1.7c-0.6-0.4-1.7-0.8-3.3-1.2c-2.3-0.5-4.1-1.2-5.3-2.1c-1.2-0.9-1.8-2.2-1.8-3.7
			c0-1.7,0.7-3.1,2.1-4.2c1.4-1.2,3.2-1.8,5.5-1.8c2.4,0,4.3,0.6,5.7,1.8c1.4,1.2,2.1,2.7,2.1,4.4l0,0.1H108c0-0.8-0.3-1.5-0.9-2.1
			c-0.6-0.6-1.5-0.9-2.5-0.9c-1.1,0-1.9,0.2-2.4,0.7c-0.6,0.5-0.8,1.1-0.8,1.8c0,0.7,0.3,1.2,0.8,1.6c0.5,0.4,1.6,0.8,3.2,1.1
			c2.4,0.5,4.2,1.2,5.5,2.1c1.2,0.9,1.8,2.2,1.8,3.8c0,1.8-0.7,3.2-2.2,4.4c-1.5,1.1-3.4,1.7-5.8,1.7c-2.6,0-4.6-0.7-6.1-2
			c-1.5-1.3-2.2-2.8-2.1-4.5l0-0.1h4.1c0,1.1,0.5,2,1.2,2.5c0.8,0.5,1.7,0.8,2.8,0.8c1.1,0,2-0.2,2.6-0.7
			C107.9,88.3,108.2,87.7,108.2,87z"/>
		<path d="M147.2,81.5c0,1.4-0.2,2.6-0.6,3.9c-0.4,1.2-0.9,2.3-1.7,3.2l3.9,3.9l-3,2.6l-3.9-3.9c-0.8,0.5-1.7,0.9-2.7,1.1
			c-1,0.3-2,0.4-3.1,0.4c-3.2,0-5.8-1.1-7.8-3.2c-2-2.1-3-4.8-3-8.1v-4.8c0-3.2,1-5.9,3-8.1c2-2.1,4.6-3.2,7.8-3.2
			c3.2,0,5.9,1.1,7.9,3.2c2,2.1,3.1,4.8,3.1,8.1V81.5z M142.8,76.6c0-2.2-0.6-4-1.8-5.5c-1.2-1.4-2.8-2.1-4.8-2.1
			c-2,0-3.5,0.7-4.6,2.1c-1.1,1.4-1.7,3.2-1.7,5.5v4.8c0,2.2,0.6,4.1,1.7,5.5c1.1,1.4,2.7,2.1,4.6,2.1c2,0,3.6-0.7,4.8-2.1
			s1.8-3.3,1.8-5.5V76.6z"/>
		<path d="M164.4,89.4c-0.6,1.1-1.4,1.9-2.3,2.4c-1,0.6-2.1,0.9-3.3,0.9c-2.1,0-3.8-0.7-5-2.1s-1.8-3.6-1.8-6.5V72.6h4.4v11.6
			c0,1.9,0.3,3.2,0.8,3.9c0.5,0.7,1.4,1,2.6,1c1.1,0,2-0.2,2.7-0.6c0.7-0.4,1.3-0.9,1.7-1.7V72.6h4.4v19.7h-3.8L164.4,89.4z"/>
		<path d="M177.9,67.8h-4.4v-3.9h4.4V67.8z M177.9,92.4h-4.4V72.6h4.4V92.4z"/>
		<path d="M187.6,88.8h10.5v3.5h-16v-2.9l10-13.3h-9.8v-3.6h15.4v2.8L187.6,88.8z"/>
	</g>
</g>
</svg>
